<?xml version="1.0" encoding="iso-8859-1"?>
<!-- Generator: Adobe Illustrator 16.0.0, SVG Export Plug-In . SVG Version: 6.00 Build 0)  -->
<!DOCTYPE svg PUBLIC "-//W3C//DTD SVG 1.1//EN" "http://www.w3.org/Graphics/SVG/1.1/DTD/svg11.dtd">
<svg xmlns="http://www.w3.org/2000/svg" xmlns:xlink="http://www.w3.org/1999/xlink" version="1.1" id="Capa_1" x="0px" y="0px" width="512px" height="512px" viewBox="0 0 533.333 533.333" style="enable-background:new 0 0 533.333 533.333;" xml:space="preserve">
<g>
	<path d="M280.6,268.71c-102.788,33.227-157.486,123.791-162.001,131.522c-31.831-35.335-51.236-82.07-51.236-133.26   c0-2.04,0.041-4.067,0.102-6.092c8.721,0.179,105.302,1.423,204.832-28.363c5.704,11.167,11.155,22.501,16.158,33.823   C285.817,267.084,283.199,267.872,280.6,268.71z M398.785,117.888c-3.585,5.107-33.587,45.433-104.457,71.994   c-32.658-60.003-68.857-109.297-74.365-116.673c14.987-3.613,30.624-5.542,46.705-5.542   C317.308,67.667,363.588,86.662,398.785,117.888z M255.827,201.869c-93.227,24.756-175.338,24.4-184.253,24.282   c12.924-61.845,54.602-113.246,110.361-139.544C187.188,93.812,222.805,143.166,255.827,201.869z M300.688,299.739   c0.437-0.152,0.874-0.294,1.312-0.443c27.981,72.711,39.553,133.651,42.52,151.139c-23.932,10.191-50.243,15.839-77.853,15.839   c-46.075,0-88.542-15.721-122.334-42.073C147.919,416.868,188.273,338.912,300.688,299.739z M443.75,0H89.583   C40.312,0,0,40.312,0,89.583V443.75c0,49.271,40.312,89.583,89.583,89.583H443.75c49.271,0,89.584-40.312,89.584-89.583V89.583   C533.333,40.312,493.02,0,443.75,0z M266.667,500C138.006,500,33.333,395.329,33.333,266.667   c0-128.661,104.673-233.333,233.334-233.333C395.33,33.333,500,138.006,500,266.667C500,395.329,395.33,500,266.667,500z    M339.304,290.086c62.456-9.998,117.326,6.37,124.146,8.521c-8.886,55.454-40.714,103.348-85.427,133.579   C375.981,420.062,365.373,361.72,339.304,290.086z M309.652,219.519c73.689-30.086,107.089-72.898,111.288-78.584   c27.757,33.915,44.565,77.111,45.006,124.152c-6.571-1.39-72.462-14.754-138.779-6.415c-1.396-3.413-2.826-6.841-4.293-10.286   C318.736,238.668,314.29,229.013,309.652,219.519z" fill="#ea4c89"/>
</g>
<g>
</g>
<g>
</g>
<g>
</g>
<g>
</g>
<g>
</g>
<g>
</g>
<g>
</g>
<g>
</g>
<g>
</g>
<g>
</g>
<g>
</g>
<g>
</g>
<g>
</g>
<g>
</g>
<g>
</g>
</svg>
